<?xml version="1.0" encoding="UTF-8" standalone="no"?>
<svg
   xmlns:dc="http://purl.org/dc/elements/1.1/"
   xmlns:cc="http://creativecommons.org/ns#"
   xmlns:rdf="http://www.w3.org/1999/02/22-rdf-syntax-ns#"
   xmlns:svg="http://www.w3.org/2000/svg"
   xmlns="http://www.w3.org/2000/svg"
   xmlns:sodipodi="http://sodipodi.sourceforge.net/DTD/sodipodi-0.dtd"
   xmlns:inkscape="http://www.inkscape.org/namespaces/inkscape"
   id="Слой_1"
   data-name="Слой 1"
   viewBox="0 0 381.97 72.900002"
   version="1.1"
   sodipodi:docname="oft-logo.svg"
   width="381.97"
   height="72.900002"
   inkscape:version="0.92.3 (2405546, 2018-03-11)">
  <metadata
     id="metadata49">
    <rdf:RDF>
      <cc:Work
         rdf:about="">
        <dc:format>image/svg+xml</dc:format>
        <dc:type
           rdf:resource="http://purl.org/dc/dcmitype/StillImage" />
        <dc:title>logo_open_fintech</dc:title>
      </cc:Work>
    </rdf:RDF>
  </metadata>
  <sodipodi:namedview
     pagecolor="#ffffff"
     bordercolor="#666666"
     borderopacity="1"
     objecttolerance="10"
     gridtolerance="10"
     guidetolerance="10"
     inkscape:pageopacity="0"
     inkscape:pageshadow="2"
     inkscape:window-width="640"
     inkscape:window-height="480"
     id="namedview47"
     showgrid="false"
     fit-margin-top="0"
     fit-margin-left="0"
     fit-margin-right="0"
     fit-margin-bottom="0"
     inkscape:zoom="0.6275"
     inkscape:cx="190.96"
     inkscape:cy="37.18"
     inkscape:window-x="0"
     inkscape:window-y="0"
     inkscape:window-maximized="0"
     inkscape:current-layer="Слой_1" />
  <defs
     id="defs4">
    <style
       id="style2">
      .cls-1 {
        fill: #fff;
      }
    </style>
  </defs>
  <title
     id="title6">logo_open_fintech</title>
  <g
     id="g44"
     transform="translate(-9.04,-64.28)">
    <polygon
       class="cls-1"
       points="33.93,136.9 87.37,136.9 87.46,64.53 34.02,64.53 "
       id="polygon8"
       style="fill:#ffffff" />
    <polygon
       points="67.71,94.99 54.27,94.99 52.15,106.42 65.59,106.42 "
       id="polygon10" />
    <path
       d="M 386.28,89.37 V 75.79 a 11.09,11.09 0 0 0 -3.21,-8.43 q -3.21,-3 -9.08,-3 H 60 L 55.53,88.19 H 69 L 71.16,76.4 h 6.91 l -2.19,11.79 h 7 L 81.64,95 h -7 l -2.14,11.42 h 7 l -1.26,6.8 h -7 L 66.8,137.16 H 374 q 5.86,0 9.08,-3 a 11.09,11.09 0 0 0 3.21,-8.43 V 112.1 c 0,-3.18 1.55,-4.76 4.72,-4.76 V 94.13 q -4.76,0 -4.73,-4.76 z"
       id="path12"
       inkscape:connector-curvature="0" />
    <path
       d="m 50.89,113.22 -2.21,11.93 H 41.77 L 44,113.22 h -7.34 l 1.26,-6.8 h 7.32 L 47.35,95 H 40 l 1.26,-6.8 h 7.31 L 53,64.31 H 26 q -5.84,0 -9,3 a 9.7,9.7 0 0 0 -1.15,1.34 H 15.66 V 69 a 11.94,11.94 0 0 0 -1.86,6.84 v 13.53 q 0,4.75 -4.76,4.76 v 13.21 c 3.17,0 4.76,1.58 4.76,4.76 v 13.58 q 0,5.37 3.19,8.43 3.19,3.06 9.06,3 h 33.84 l 4.44,-23.94 z"
       id="path14"
       inkscape:connector-curvature="0" />
    <g
       id="g38">
      <path
         class="cls-1"
         d="m 120.41,90 a 14.3,14.3 0 0 1 0,20.9 16.19,16.19 0 0 1 -22.13,0 14.28,14.28 0 0 1 0,-20.9 16.19,16.19 0 0 1 22.13,0 z m -16.63,4.73 a 8.41,8.41 0 0 0 0,11.45 7.93,7.93 0 0 0 11.13,0 8.44,8.44 0 0 0 0,-11.45 7.93,7.93 0 0 0 -11.13,0 z"
         id="path16"
         inkscape:connector-curvature="0"
         style="fill:#ffffff" />
      <path
         class="cls-1"
         d="m 136,112 v 10.81 h -6.8 v -28 h 6.8 v 2.4 c 0.05,-0.08 0.12,-0.17 0.21,-0.29 a 7.08,7.08 0 0 1 0.65,-0.66 8.63,8.63 0 0 1 1.13,-0.86 7,7 0 0 1 1.56,-0.68 6.89,6.89 0 0 1 2.06,-0.3 8.28,8.28 0 0 1 6.33,2.9 11.36,11.36 0 0 1 0,14.61 8.3,8.3 0 0 1 -6.33,2.89 6.87,6.87 0 0 1 -3.09,-0.69 6,6 0 0 1 -2,-1.38 z m 1.14,-10.39 a 4.46,4.46 0 0 0 0,6 3.51,3.51 0 0 0 5.32,0 4.46,4.46 0 0 0 0,-6 3.51,3.51 0 0 0 -5.32,0 z"
         id="path18"
         inkscape:connector-curvature="0"
         style="fill:#ffffff" />
      <path
         class="cls-1"
         d="m 174,106.43 h -13.38 a 3.18,3.18 0 0 0 1.4,2.08 5.18,5.18 0 0 0 3.19,0.93 5.65,5.65 0 0 0 2.34,-0.5 5.2,5.2 0 0 0 1.59,-1 l 0.49,-0.51 3,4.4 c -0.08,0.08 -0.19,0.19 -0.35,0.33 a 10.79,10.79 0 0 1 -1,0.72 13.84,13.84 0 0 1 -1.7,0.92 11.92,11.92 0 0 1 -2.28,0.71 12.9,12.9 0 0 1 -2.85,0.31 10.69,10.69 0 0 1 -7.71,-3 9.65,9.65 0 0 1 -3.1,-7.22 9.75,9.75 0 0 1 3.05,-7.2 10.14,10.14 0 0 1 7.37,-3 10,10 0 0 1 7.26,2.86 9.32,9.32 0 0 1 2.95,6.95 z m -7.8,-6 a 3.15,3.15 0 0 0 -2.21,-0.79 3.23,3.23 0 0 0 -2.21,0.78 4,4 0 0 0 -1.19,2 h 6.8 a 3.91,3.91 0 0 0 -1.16,-2 z"
         id="path20"
         inkscape:connector-curvature="0"
         style="fill:#ffffff" />
      <path
         class="cls-1"
         d="m 185.21,94.82 v 2.4 c 0.16,-0.21 0.38,-0.46 0.66,-0.77 a 7.87,7.87 0 0 1 1.88,-1.24 6.76,6.76 0 0 1 8.25,1.54 8.93,8.93 0 0 1 2,6.08 v 11.61 h -6.81 V 104 a 3.34,3.34 0 0 0 -0.78,-2.34 2.57,2.57 0 0 0 -2,-0.86 3,3 0 0 0 -2.31,1 4.06,4.06 0 0 0 -0.9,2.78 v 9.81 h -6.8 V 94.82 Z"
         id="path22"
         inkscape:connector-curvature="0"
         style="fill:#ffffff" />
      <path
         class="cls-1"
         d="m 212.73,86.41 h 20.72 v 6.82 h -13.11 v 4.6 h 10.95 v 6.8 h -10.95 v 9.81 h -7.61 z"
         id="path24"
         inkscape:connector-curvature="0"
         style="fill:#ffffff" />
      <path
         class="cls-1"
         d="m 243.76,86.37 a 3.59,3.59 0 0 1 0,5.13 4.1,4.1 0 0 1 -5.46,0 3.59,3.59 0 0 1 0,-5.13 4.1,4.1 0 0 1 5.46,0 z m 0.67,8.36 v 19.63 h -6.8 V 94.73 Z"
         id="path26"
         inkscape:connector-curvature="0"
         style="fill:#ffffff" />
      <path
         class="cls-1"
         d="m 257.64,94.73 v 2.41 a 9.46,9.46 0 0 1 0.65,-0.78 8.09,8.09 0 0 1 1.89,-1.24 6.45,6.45 0 0 1 3.07,-0.78 6.54,6.54 0 0 1 5.18,2.33 9,9 0 0 1 2,6.08 v 11.61 h -6.8 V 104 a 3.38,3.38 0 0 0 -0.78,-2.35 2.62,2.62 0 0 0 -2,-0.86 2.92,2.92 0 0 0 -2.3,1 4,4 0 0 0 -0.9,2.78 v 9.81 h -6.8 V 94.73 Z"
         id="path28"
         inkscape:connector-curvature="0"
         style="fill:#ffffff" />
      <path
         class="cls-1"
         d="m 271.44,86.33 h 23.22 v 6.82 h -7.82 v 21.21 h -7.6 V 93.15 h -7.8 z"
         id="path30"
         inkscape:connector-curvature="0"
         style="fill:#ffffff" />
      <path
         class="cls-1"
         d="m 314.26,106.34 h -13.41 a 3.19,3.19 0 0 0 1.39,2.09 5.21,5.21 0 0 0 3.2,0.92 6.26,6.26 0 0 0 3.93,-1.48 l 0.49,-0.51 3,4.4 -0.35,0.32 a 9.64,9.64 0 0 1 -1,0.72 11.48,11.48 0 0 1 -1.69,0.92 12,12 0 0 1 -2.29,0.72 12.87,12.87 0 0 1 -2.84,0.31 10.65,10.65 0 0 1 -7.71,-3 9.65,9.65 0 0 1 -3.1,-7.22 9.76,9.76 0 0 1 3.05,-7.21 10.12,10.12 0 0 1 7.37,-3 10,10 0 0 1 7.26,2.86 9.35,9.35 0 0 1 2.94,7 z m -7.8,-6 a 3.5,3.5 0 0 0 -4.42,0 3.83,3.83 0 0 0 -1.19,2 h 6.8 a 4,4 0 0 0 -1.19,-2.01 z"
         id="path32"
         inkscape:connector-curvature="0"
         style="fill:#ffffff" />
      <path
         class="cls-1"
         d="m 320.9,111.69 a 9.6,9.6 0 0 1 0,-14.29 10.64,10.64 0 0 1 7.63,-3.06 10.78,10.78 0 0 1 3,0.42 9.51,9.51 0 0 1 2.38,1 14.52,14.52 0 0 1 1.66,1.16 5.92,5.92 0 0 1 1,1 l 0.31,0.41 -4,4.2 a 5.83,5.83 0 0 0 -0.46,-0.59 5.36,5.36 0 0 0 -1.35,-1 4.14,4.14 0 0 0 -2.19,-0.63 4.21,4.21 0 1 0 0,8.41 4.43,4.43 0 0 0 2.16,-0.56 4.55,4.55 0 0 0 1.43,-1.12 l 0.41,-0.51 4,4.2 -0.33,0.44 a 8.8,8.8 0 0 1 -1,1 10.41,10.41 0 0 1 -1.68,1.19 11,11 0 0 1 -2.36,1 10.94,10.94 0 0 1 -10.66,-2.62 z"
         id="path34"
         inkscape:connector-curvature="0"
         style="fill:#ffffff" />
      <path
         class="cls-1"
         d="m 347.51,86.33 v 10.81 a 9.91,9.91 0 0 1 0.66,-0.78 7.74,7.74 0 0 1 1.88,-1.24 6.45,6.45 0 0 1 3.07,-0.78 6.54,6.54 0 0 1 5.18,2.33 9,9 0 0 1 2,6.08 v 11.61 h -6.81 V 104 a 3.38,3.38 0 0 0 -0.78,-2.35 2.6,2.6 0 0 0 -2,-0.86 2.94,2.94 0 0 0 -2.31,1 4,4 0 0 0 -0.9,2.78 v 9.81 h -6.8 v -28 z"
         id="path36"
         inkscape:connector-curvature="0"
         style="fill:#ffffff" />
    </g>
    <polygon
       class="cls-1"
       points="53.04,64.31 59.95,64.31 59.96,64.29 53.05,64.28 "
       id="polygon40"
       style="fill:#ffffff" />
    <polygon
       class="cls-1"
       points="66.81,137.16 59.89,137.16 59.89,137.17 66.8,137.18 "
       id="polygon42"
       style="fill:#ffffff" />
  </g>
</svg>
