<?xml version="1.0" encoding="UTF-8"?>
<svg width="439px" height="98px" viewBox="0 0 439 98" version="1.1" xmlns="http://www.w3.org/2000/svg" xmlns:xlink="http://www.w3.org/1999/xlink">
    <!-- Generator: Sketch 41.2 (35397) - http://www.bohemiancoding.com/sketch -->
    <title>logo-horizontal</title>
    <desc>Created with Sketch.</desc>
    <defs></defs>
    <g id="Page-1" stroke="none" stroke-width="1" fill="none" fill-rule="evenodd">
        <g id="logo-horizontal">
            <g id="Group">
                <g id="Shape">
                    <g transform="translate(0.000000, 13.000000)" fill="#F28E3B">
                        <path d="M32.8,18 L23,15.4 L15.8,22.6 L18.4,32.4 L28.2,35 L35.4,27.8 L32.8,18 Z M26.5,28.3 L23.4,27.5 L22.6,24.4 L24.9,22.1 L28,22.9 L28.8,26 L26.5,28.3 Z"></path>
                        <path d="M43.8,7 L19,0.4 L0.8,18.6 L7.4,43.4 L32.2,50.1 L50.4,31.9 L43.8,7 Z M30.5,43.5 L12.2,38.6 L7.3,20.3 L20.7,6.9 L39,11.8 L43.9,30.1 L30.5,43.5 Z"></path>
                    </g>
                    <g transform="translate(35.000000, 48.000000)" fill="#90C253">
                        <path d="M32.7,17.9 L22.9,15.3 L15.7,22.5 L18.3,32.3 L28.1,34.9 L35.3,27.7 L32.7,17.9 Z M26.4,28.2 L23.3,27.4 L22.5,24.3 L24.8,22 L27.9,22.8 L28.7,25.9 L26.4,28.2 Z"></path>
                        <path d="M43.7,6.9 L18.9,0.3 L0.7,18.5 L7.3,43.3 L32.1,50 L50.3,31.8 L43.7,6.9 Z M30.4,43.4 L12.1,38.5 L7.2,20.2 L20.6,6.8 L38.9,11.7 L43.8,30 L30.4,43.4 Z"></path>
                    </g>
                    <g transform="translate(48.000000, 0.000000)" fill="#79C7E5">
                        <path d="M32.5,18.2 L22.7,15.6 L15.5,22.8 L18.1,32.6 L27.9,35.2 L35.1,28 L32.5,18.2 Z M26.2,28.5 L23.1,27.7 L22.3,24.6 L24.6,22.3 L27.7,23.1 L28.5,26.2 L26.2,28.5 Z"></path>
                        <path d="M43.5,7.2 L18.7,0.6 L0.5,18.8 L7.1,43.6 L31.9,50.3 L50.1,32.1 L43.5,7.2 Z M30.2,43.7 L11.9,38.8 L7,20.5 L20.4,7.1 L38.7,12 L43.6,30.3 L30.2,43.7 Z"></path>
                    </g>
                </g>
                <g transform="translate(124.000000, 26.000000)" id="Shape" fill="#79C7E5">
                    <path d="M7.6,36.4 C2.8,36.4 0.2,33.8 0.2,29 L0.2,8.2 C0.2,3.4 2.8,0.8 7.6,0.8 L16.8,0.8 C21.6,0.8 24.2,3.4 24.2,8.2 L24.2,29 C24.2,33.8 21.6,36.4 16.8,36.4 L7.6,36.4 Z M5.2,29 C5.2,31 6.2,32 8,32 L16.3,32 C18.2,32 19.2,31 19.2,29.2 L19.2,7.9 C19.2,6 18.2,5.1 16.3,5.1 L8,5.1 C6.1,5.1 5.2,6.1 5.2,7.9 L5.2,29 Z"></path>
                    <path d="M35.7,33.9 L35.7,45.8 L30.9,45.8 L30.9,10.8 L35.2,10.8 L35.5,13.3 L37.8,11.7 C38.9,10.9 40.1,10.6 41.5,10.6 L45,10.6 C49.1,10.6 51.3,12.9 51.3,16.9 L51.3,30.1 C51.3,34.1 49.1,36.4 45,36.4 L41.5,36.4 C40.2,36.4 39,36 37.8,35.3 L35.7,33.9 Z M44.1,32.2 C45.8,32.2 46.6,31.3 46.6,29.7 L46.6,17.2 C46.6,15.5 45.7,14.7 44.1,14.7 L41.5,14.7 C40.6,14.7 39.7,15 38.9,15.5 L35.7,17.6 L35.7,29.4 L38.9,31.5 C39.8,32.1 40.6,32.3 41.5,32.3 L44.1,32.3 L44.1,32.2 Z"></path>
                    <path d="M77,29.5 C77,34 74.5,36.4 70,36.4 L64.1,36.4 C59.5,36.4 57.1,34 57.1,29.3 L57.1,17.6 C57.1,12.9 59.5,10.5 64.1,10.5 L70,10.5 C74.5,10.5 77,12.9 77,17.6 L77,24.7 L61.8,24.7 L61.8,29.9 C61.8,31.7 62.7,32.5 64.4,32.5 L69.7,32.5 C71.5,32.5 72.3,31.6 72.3,29.9 L72.3,28.2 L77,28.2 L77,29.5 L77,29.5 Z M61.9,21 L72.5,21 L72.5,17 C72.5,15.2 71.6,14.4 69.9,14.4 L64.6,14.4 C62.8,14.4 62,15.3 62,17 L62,21 L61.9,21 Z"></path>
                    <path d="M93.5,14.7 C92.6,14.7 91.7,15 90.9,15.5 L87.7,17.6 L87.7,36.2 L83,36.2 L83,10.8 L87.3,10.8 L87.5,13.3 L89.9,11.7 C91.1,10.9 92.4,10.6 93.6,10.6 L97.1,10.6 C101.2,10.6 103.4,12.8 103.4,16.9 L103.4,36.2 L98.6,36.2 L98.6,17.2 C98.6,15.5 97.8,14.7 96.1,14.7 L93.5,14.7 L93.5,14.7 Z"></path>
                    <polygon points="131.6 21.4 115.7 21.4 115.7 36.2 110.7 36.2 110.7 0.9 132.9 0.9 132.9 5.2 115.7 5.2 115.7 17.1 131.6 17.1"></polygon>
                    <path d="M137.5,6.6 L137.5,0.9 L142.5,0.9 L142.5,6.6 L137.5,6.6 Z M137.6,36.2 L137.6,10.8 L142.4,10.8 L142.4,36.2 L137.6,36.2 Z"></path>
                    <path d="M159.5,14.7 C158.6,14.7 157.7,15 156.9,15.5 L153.7,17.6 L153.7,36.2 L148.9,36.2 L148.9,10.8 L153.2,10.8 L153.4,13.3 L155.8,11.7 C157,10.9 158.3,10.6 159.5,10.6 L163,10.6 C167.1,10.6 169.3,12.8 169.3,16.9 L169.3,36.2 L164.5,36.2 L164.5,17.2 C164.5,15.5 163.7,14.7 162,14.7 L159.5,14.7 L159.5,14.7 Z"></path>
                    <polygon points="193.3 5.3 184.1 5.3 184.1 36.2 179.1 36.2 179.1 5.3 169.9 5.3 169.9 0.9 193.3 0.9"></polygon>
                    <path d="M213.5,29.5 C213.5,34 211,36.4 206.5,36.4 L200.6,36.4 C196,36.4 193.6,34 193.6,29.3 L193.6,17.6 C193.6,12.9 196,10.5 200.6,10.5 L206.5,10.5 C211,10.5 213.5,12.9 213.5,17.6 L213.5,24.7 L198.3,24.7 L198.3,29.9 C198.3,31.7 199.2,32.5 200.9,32.5 L206.2,32.5 C208,32.5 208.8,31.6 208.8,29.9 L208.8,28.2 L213.5,28.2 L213.5,29.5 L213.5,29.5 Z M198.4,21 L209,21 L209,17 C209,15.2 208.1,14.4 206.4,14.4 L201,14.4 C199.2,14.4 198.4,15.3 198.4,17 L198.4,21 Z"></path>
                    <path d="M226,36.4 C221.4,36.4 219,34 219,29.3 L219,17.6 C219,12.9 221.4,10.5 226,10.5 L231.7,10.5 C236.2,10.5 238.6,12.9 238.6,17.6 L238.6,19.3 L234,19.3 L234,17.3 C234,15.5 233.1,14.7 231.4,14.7 L226.4,14.7 C224.6,14.7 223.8,15.6 223.8,17.3 L223.8,29.6 C223.8,31.4 224.7,32.2 226.4,32.2 L231.4,32.2 C233.2,32.2 234,31.3 234,29.6 L234,27.1 L238.7,27.1 L238.7,29.3 C238.7,34 236.2,36.4 231.8,36.4 L226,36.4 Z"></path>
                    <path d="M249,17.6 L249,36.2 L244.2,36.2 L244.2,0.9 L249,0.9 L249,13 L251.1,11.6 C252.3,10.8 253.6,10.5 254.8,10.5 L258.3,10.5 C262.4,10.5 264.6,12.7 264.6,16.8 L264.6,36.1 L260,36.1 L260,17.1 C260,15.4 259.2,14.6 257.5,14.6 L254.8,14.6 C253.9,14.6 253,14.9 252.2,15.4 L249,17.6 Z"></path>
                    <polygon points="271.1 36.2 271.1 30.1 276.3 30.1 276.3 36.2"></polygon>
                    <path d="M282.7,6.6 L282.7,0.9 L287.7,0.9 L287.7,6.6 L282.7,6.6 Z M282.8,36.2 L282.8,10.8 L287.6,10.8 L287.6,36.2 L282.8,36.2 Z"></path>
                    <path d="M300.7,36.4 C296.1,36.4 293.7,34 293.7,29.3 L293.7,17.6 C293.7,12.9 296.1,10.5 300.7,10.5 L307.1,10.5 C311.6,10.5 314.1,12.9 314.1,17.6 L314.1,29.3 C314.1,34 311.6,36.4 307.1,36.4 L300.7,36.4 Z M306.7,32.3 C308.4,32.3 309.3,31.3 309.3,29.7 L309.3,17.2 C309.3,15.4 308.4,14.6 306.7,14.6 L301,14.6 C299.2,14.6 298.4,15.5 298.4,17.2 L298.4,29.7 C298.4,31.5 299.3,32.3 301,32.3 L306.7,32.3 Z"></path>
                </g>
            </g>
        </g>
    </g>
</svg>