<svg id="Слой_1" data-name="Слой 1" xmlns="http://www.w3.org/2000/svg" viewBox="0 0 400 200">
  <defs>
    <style>
      .cls-1 {
        fill: #fff;
      }
    </style>
  </defs>
  <title>logo_open_fintech</title>
  <g>
    <polygon class="cls-1" points="87.46 64.53 34.02 64.53 33.93 136.9 87.37 136.9 87.46 64.53"/>
    <polygon points="52.15 106.42 65.59 106.42 67.71 94.99 54.27 94.99 52.15 106.42"/>
    <path d="M386.28,89.37V75.79a11.09,11.09,0,0,0-3.21-8.43q-3.21-3-9.08-3H60L55.53,88.19H69L71.16,76.4h6.91L75.88,88.19h7L81.64,95h-7L72.5,106.42h7l-1.26,6.8h-7L66.8,137.16H374q5.86,0,9.08-3a11.09,11.09,0,0,0,3.21-8.43V112.1c0-3.18,1.55-4.76,4.72-4.76V94.13Q386.25,94.13,386.28,89.37Z"/>
    <path d="M50.89,113.22l-2.21,11.93H41.77L44,113.22H36.66l1.26-6.8h7.32L47.35,95H40l1.26-6.8h7.31L53,64.31H26q-5.84,0-9,3a9.7,9.7,0,0,0-1.15,1.34h-.19V69a11.94,11.94,0,0,0-1.86,6.84V89.37q0,4.75-4.76,4.76v13.21c3.17,0,4.76,1.58,4.76,4.76v13.58q0,5.37,3.19,8.43t9.06,3H59.89l4.44-23.94Z"/>
    <g>
      <path class="cls-1" d="M120.41,90a14.3,14.3,0,0,1,0,20.9,16.19,16.19,0,0,1-22.13,0,14.28,14.28,0,0,1,0-20.9,16.19,16.19,0,0,1,22.13,0Zm-16.63,4.73a8.41,8.41,0,0,0,0,11.45,7.93,7.93,0,0,0,11.13,0,8.44,8.44,0,0,0,0-11.45,7.93,7.93,0,0,0-11.13,0Z"/>
      <path class="cls-1" d="M136,112v10.81H129.2v-28H136v2.4c.05-.08.12-.17.21-.29a7.08,7.08,0,0,1,.65-.66,8.63,8.63,0,0,1,1.13-.86,7,7,0,0,1,1.56-.68,6.89,6.89,0,0,1,2.06-.3,8.28,8.28,0,0,1,6.33,2.9,11.36,11.36,0,0,1,0,14.61,8.3,8.3,0,0,1-6.33,2.89,6.87,6.87,0,0,1-3.09-.69,6,6,0,0,1-2-1.38Zm1.14-10.39a4.46,4.46,0,0,0,0,6,3.51,3.51,0,0,0,5.32,0,4.46,4.46,0,0,0,0-6,3.51,3.51,0,0,0-5.32,0Z"/>
      <path class="cls-1" d="M174,106.43H160.62a3.18,3.18,0,0,0,1.4,2.08,5.18,5.18,0,0,0,3.19.93,5.65,5.65,0,0,0,2.34-.5,5.2,5.2,0,0,0,1.59-1l.49-.51,3,4.4c-.08.08-.19.19-.35.33a10.79,10.79,0,0,1-1,.72,13.84,13.84,0,0,1-1.7.92,11.92,11.92,0,0,1-2.28.71,12.9,12.9,0,0,1-2.85.31,10.69,10.69,0,0,1-7.71-3,9.65,9.65,0,0,1-3.1-7.22,9.75,9.75,0,0,1,3.05-7.2,10.14,10.14,0,0,1,7.37-3,10,10,0,0,1,7.26,2.86,9.32,9.32,0,0,1,2.95,6.95Zm-7.8-6a3.15,3.15,0,0,0-2.21-.79,3.23,3.23,0,0,0-2.21.78,4,4,0,0,0-1.19,2h6.8A3.91,3.91,0,0,0,166.23,100.42Z"/>
      <path class="cls-1" d="M185.21,94.82v2.4c.16-.21.38-.46.66-.77a7.87,7.87,0,0,1,1.88-1.24A6.76,6.76,0,0,1,196,96.75a8.93,8.93,0,0,1,2,6.08v11.61h-6.81V104a3.34,3.34,0,0,0-.78-2.34,2.57,2.57,0,0,0-2-.86,3,3,0,0,0-2.31,1,4.06,4.06,0,0,0-.9,2.78v9.81h-6.8V94.82Z"/>
      <path class="cls-1" d="M212.73,86.41h20.72v6.82H220.34v4.6h10.95v6.8H220.34v9.81h-7.61Z"/>
      <path class="cls-1" d="M243.76,86.37a3.59,3.59,0,0,1,0,5.13,4.1,4.1,0,0,1-5.46,0,3.59,3.59,0,0,1,0-5.13,4.1,4.1,0,0,1,5.46,0Zm.67,8.36v19.63h-6.8V94.73Z"/>
      <path class="cls-1" d="M257.64,94.73v2.41a9.46,9.46,0,0,1,.65-.78,8.09,8.09,0,0,1,1.89-1.24,6.45,6.45,0,0,1,3.07-.78,6.54,6.54,0,0,1,5.18,2.33,9,9,0,0,1,2,6.08v11.61h-6.8V104a3.38,3.38,0,0,0-.78-2.35,2.62,2.62,0,0,0-2-.86,2.92,2.92,0,0,0-2.3,1,4,4,0,0,0-.9,2.78v9.81h-6.8V94.73Z"/>
      <path class="cls-1" d="M271.44,86.33h23.22v6.82h-7.82v21.21h-7.6V93.15h-7.8Z"/>
      <path class="cls-1" d="M314.26,106.34H300.85a3.19,3.19,0,0,0,1.39,2.09,5.21,5.21,0,0,0,3.2.92,6.26,6.26,0,0,0,3.93-1.48l.49-.51,3,4.4-.35.32a9.64,9.64,0,0,1-1,.72,11.48,11.48,0,0,1-1.69.92,12,12,0,0,1-2.29.72,12.87,12.87,0,0,1-2.84.31,10.65,10.65,0,0,1-7.71-3,9.65,9.65,0,0,1-3.1-7.22,9.76,9.76,0,0,1,3.05-7.21,10.12,10.12,0,0,1,7.37-3,10,10,0,0,1,7.26,2.86,9.35,9.35,0,0,1,2.94,7Zm-7.8-6a3.5,3.5,0,0,0-4.42,0,3.83,3.83,0,0,0-1.19,2h6.8A4,4,0,0,0,306.46,100.33Z"/>
      <path class="cls-1" d="M320.9,111.69a9.6,9.6,0,0,1,0-14.29,10.64,10.64,0,0,1,7.63-3.06,10.78,10.78,0,0,1,3,.42,9.51,9.51,0,0,1,2.38,1,14.52,14.52,0,0,1,1.66,1.16,5.92,5.92,0,0,1,1,1l.31.41-4,4.2a5.83,5.83,0,0,0-.46-.59,5.36,5.36,0,0,0-1.35-1,4.14,4.14,0,0,0-2.19-.63,4.21,4.21,0,1,0,0,8.41,4.43,4.43,0,0,0,2.16-.56,4.55,4.55,0,0,0,1.43-1.12l.41-.51,4,4.2-.33.44a8.8,8.8,0,0,1-1,1,10.41,10.41,0,0,1-1.68,1.19,11,11,0,0,1-2.36,1,10.94,10.94,0,0,1-10.66-2.62Z"/>
      <path class="cls-1" d="M347.51,86.33V97.14a9.91,9.91,0,0,1,.66-.78,7.74,7.74,0,0,1,1.88-1.24,6.45,6.45,0,0,1,3.07-.78,6.54,6.54,0,0,1,5.18,2.33,9,9,0,0,1,2,6.08v11.61h-6.81V104a3.38,3.38,0,0,0-.78-2.35,2.6,2.6,0,0,0-2-.86,2.94,2.94,0,0,0-2.31,1,4,4,0,0,0-.9,2.78v9.81h-6.8v-28Z"/>
    </g>
    <polygon class="cls-1" points="59.96 64.29 53.05 64.28 53.04 64.31 59.95 64.31 59.96 64.29"/>
    <polygon class="cls-1" points="59.89 137.17 66.8 137.18 66.81 137.16 59.89 137.16 59.89 137.17"/>
  </g>
</svg>
