<?xml version="1.0" encoding="UTF-8" standalone="no"?>
<svg
   xmlns:dc="http://purl.org/dc/elements/1.1/"
   xmlns:cc="http://creativecommons.org/ns#"
   xmlns:rdf="http://www.w3.org/1999/02/22-rdf-syntax-ns#"
   xmlns:svg="http://www.w3.org/2000/svg"
   xmlns="http://www.w3.org/2000/svg"
   xmlns:sodipodi="http://sodipodi.sourceforge.net/DTD/sodipodi-0.dtd"
   xmlns:inkscape="http://www.inkscape.org/namespaces/inkscape"
   id="Слой_1"
   data-name="Слой 1"
   viewBox="0 0 382.01001 72.860001"
   version="1.1"
   sodipodi:docname="logo_open_fintech_white.svg"
   width="382.01001"
   height="72.860001"
   inkscape:version="0.92.3 (2405546, 2018-03-11)">
  <metadata
     id="metadata43">
    <rdf:RDF>
      <cc:Work
         rdf:about="">
        <dc:format>image/svg+xml</dc:format>
        <dc:type
           rdf:resource="http://purl.org/dc/dcmitype/StillImage" />
        <dc:title>logo_open_fintech</dc:title>
      </cc:Work>
    </rdf:RDF>
  </metadata>
  <sodipodi:namedview
     pagecolor="#ffffff"
     bordercolor="#666666"
     borderopacity="1"
     objecttolerance="10"
     gridtolerance="10"
     guidetolerance="10"
     inkscape:pageopacity="0"
     inkscape:pageshadow="2"
     inkscape:window-width="640"
     inkscape:window-height="480"
     id="namedview41"
     showgrid="false"
     fit-margin-top="0"
     fit-margin-left="0"
     fit-margin-right="0"
     fit-margin-bottom="0"
     inkscape:zoom="0.6275"
     inkscape:cx="191"
     inkscape:cy="37.06"
     inkscape:window-x="0"
     inkscape:window-y="0"
     inkscape:window-maximized="0"
     inkscape:current-layer="Слой_1" />
  <defs
     id="defs4">
    <style
       id="style2">
      .cls-1 {
        fill: #fff;
      }
    </style>
  </defs>
  <title
     id="title6">logo_open_fintech</title>
  <g
     id="g38"
     transform="translate(-9,-64.2)">
    <path
       class="cls-1"
       d="M 386.28,89.27 V 75.69 a 11.09,11.09 0 0 0 -3.21,-8.43 Q 379.86,64.2 374,64.2 H 26 q -5.84,0 -9,3.06 a 9.15,9.15 0 0 0 -1.15,1.34 h -0.19 v 0.25 A 11.92,11.92 0 0 0 13.8,75.69 V 89.27 Q 13.73,94 9,94 v 13.21 q 4.76,0 4.76,4.75 v 13.58 q 0,5.38 3.19,8.43 3.19,3.05 9.05,3.09 h 348 q 5.86,0 9.08,-3.06 3.22,-3.06 3.21,-8.43 V 112 q 0,-4.76 4.72,-4.75 V 94 q -4.76,0 -4.73,-4.73 z"
       id="path8"
       inkscape:connector-curvature="0"
       style="fill:#ffffff" />
    <path
       d="m 78.78,113.74 1.49,-8 h -7 l 1.88,-10.18 h 7 l 1.49,-8.05 h -7 L 78.82,75.72 H 70.64 L 68.45,87.46 H 56.28 L 60.6,64.2 h -8.19 l -4.32,23.26 h -7.31 l -1.49,8.05 h 7.31 l -1.88,10.18 H 37.4 l -1.49,8 h 7.31 L 41,125.67 h 8.2 l 2.21,-11.93 h 12.17 l -4.34,23.32 h 8.2 l 4.33,-23.32 z m -13.71,-8 H 52.9 L 54.79,95.56 H 67 Z"
       id="path10"
       inkscape:connector-curvature="0" />
    <g
       id="g36">
      <path
         d="M 109.34,85.13 A 15.84,15.84 0 0 0 98,89.6 a 14.66,14.66 0 0 0 0,21.4 16.55,16.55 0 0 0 22.65,0 14.68,14.68 0 0 0 0,-21.44 15.84,15.84 0 0 0 -11.31,-4.43 z m 7.43,15.19 a 7.51,7.51 0 0 1 -2.13,5.47 7.52,7.52 0 0 1 -10.59,0 8,8 0 0 1 0,-10.92 7.21,7.21 0 0 1 5.31,-2.17 7.13,7.13 0 0 1 5.29,2.17 7.46,7.46 0 0 1 2.12,5.45 z"
         id="path12"
         inkscape:connector-curvature="0" />
      <path
         d="m 141.62,94 a 7.25,7.25 0 0 0 -2.17,0.32 7.33,7.33 0 0 0 -1.65,0.72 9.42,9.42 0 0 0 -1.18,0.9 l -0.24,0.23 v -1.83 h -7.55 v 28.78 h 7.55 V 113 a 7,7 0 0 0 2,1.34 7.26,7.26 0 0 0 3.26,0.74 8.72,8.72 0 0 0 6.61,-3 11.77,11.77 0 0 0 0,-15.12 8.72,8.72 0 0 0 -6.63,-2.96 z m 1.61,10.58 a 3.81,3.81 0 0 1 -1,2.72 3.14,3.14 0 0 1 -2.38,1.1 3.18,3.18 0 0 1 -2.39,-1.1 4.09,4.09 0 0 1 0,-5.45 3.18,3.18 0 0 1 2.39,-1.1 3.14,3.14 0 0 1 2.38,1.1 3.81,3.81 0 0 1 1,2.68 z"
         id="path14"
         inkscape:connector-curvature="0" />
      <path
         d="m 164,94 a 10.48,10.48 0 0 0 -7.63,3.11 10.38,10.38 0 0 0 0.05,15 11.09,11.09 0 0 0 8,3.09 14.45,14.45 0 0 0 5.29,-1.06 9.37,9.37 0 0 0 1.6,-0.89 8.46,8.46 0 0 0 0.91,-0.74 l 0.25,-0.24 -3.54,-4.55 -0.29,0.2 a 11.14,11.14 0 0 1 -1.23,0.67 5.44,5.44 0 0 1 -2.19,0.46 4.91,4.91 0 0 1 -3,-0.85 3.13,3.13 0 0 1 -1.14,-1.41 h 13.27 l 0.23,-2.56 a 9.75,9.75 0 0 0 -3,-7.22 A 10.44,10.44 0 0 0 164,94 Z m -2.89,8 a 3.28,3.28 0 0 1 0.93,-1.37 2.78,2.78 0 0 1 2,-0.69 2.83,2.83 0 0 1 2,0.69 v 0 a 3.44,3.44 0 0 1 0.93,1.37 z"
         id="path16"
         inkscape:connector-curvature="0" />
      <path
         d="m 311.75,96.92 a 11,11 0 0 0 -15.15,0.14 10.13,10.13 0 0 0 -3.17,7.47 10,10 0 0 0 3.22,7.49 11.07,11.07 0 0 0 8,3.09 12.94,12.94 0 0 0 2.92,-0.33 12.08,12.08 0 0 0 2.36,-0.73 9,9 0 0 0 1.6,-0.89 9.2,9.2 0 0 0 0.92,-0.74 l 0.24,-0.24 -3.53,-4.55 -0.29,0.2 a 11.94,11.94 0 0 1 -1.24,0.67 5.39,5.39 0 0 1 -2.18,0.46 4.91,4.91 0 0 1 -3,-0.85 3.1,3.1 0 0 1 -1.15,-1.41 h 13.28 l 0.23,-2.56 a 9.73,9.73 0 0 0 -3.06,-7.22 z m -4.63,5 h -5.79 a 3.4,3.4 0 0 1 0.94,-1.37 2.78,2.78 0 0 1 2,-0.69 2.83,2.83 0 0 1 2,0.69 v 0 a 3.55,3.55 0 0 1 0.85,1.45 z"
         id="path18"
         inkscape:connector-curvature="0" />
      <path
         d="m 190.82,94 a 6.93,6.93 0 0 0 -3.24,0.82 8.14,8.14 0 0 0 -2,1.32 v 0 -1.8 H 178 v 20.38 h 7.55 v -10.19 a 3.71,3.71 0 0 1 0.8,-2.53 2.57,2.57 0 0 1 2,-0.89 2.19,2.19 0 0 1 1.73,0.74 2.92,2.92 0 0 1 0.69,2.09 v 10.78 h 7.55 v -12 a 9.4,9.4 0 0 0 -2.1,-6.33 6.92,6.92 0 0 0 -5.4,-2.39 z"
         id="path20"
         inkscape:connector-curvature="0" />
      <polygon
         points="220.71,104.9 231.66,104.9 231.66,97.35 220.71,97.35 220.71,93.5 233.82,93.5 233.82,85.93 212.35,85.93 212.35,114.72 220.71,114.72 "
         id="polygon22" />
      <path
         d="m 241,84.85 a 4.19,4.19 0 0 0 -3,1.15 3.94,3.94 0 0 0 0,5.66 4.46,4.46 0 0 0 6,0 3.94,3.94 0 0 0 0,-5.66 4.19,4.19 0 0 0 -3,-1.15 z"
         id="path24"
         inkscape:connector-curvature="0" />
      <rect
         x="237.25"
         y="94.25"
         width="7.5500002"
         height="20.379999"
         id="rect26" />
      <path
         d="M 263.25,93.86 A 6.83,6.83 0 0 0 260,94.69 8.23,8.23 0 0 0 258,96 v 0 -1.75 h -7.55 v 20.38 H 258 v -10.19 a 3.7,3.7 0 0 1 0.81,-2.53 2.55,2.55 0 0 1 2,-0.89 2.21,2.21 0 0 1 1.74,0.74 3,3 0 0 1 0.68,2.1 v 10.77 h 7.56 v -12 a 9.33,9.33 0 0 0 -2.11,-6.32 6.93,6.93 0 0 0 -5.43,-2.45 z"
         id="path28"
         inkscape:connector-curvature="0" />
      <polygon
         points="271.06,93.42 278.86,93.42 278.86,114.63 287.22,114.63 287.22,93.42 295.04,93.42 295.04,85.85 271.06,85.85 "
         id="polygon30" />
      <path
         d="m 328.94,100.61 a 3.86,3.86 0 0 1 2,0.58 5.66,5.66 0 0 1 1.26,0.9 7.07,7.07 0 0 1 0.43,0.57 l 0.26,0.39 4.53,-4.78 -0.5,-0.66 a 6.27,6.27 0 0 0 -1.1,-1.08 15.63,15.63 0 0 0 -1.7,-1.19 10.16,10.16 0 0 0 -2.48,-1 11.35,11.35 0 0 0 -11,2.73 10,10 0 0 0 0,14.83 11.35,11.35 0 0 0 11,2.71 12.22,12.22 0 0 0 2.45,-1 11.65,11.65 0 0 0 1.74,-1.23 8.64,8.64 0 0 0 1,-1 l 0.52,-0.69 -4.5,-4.74 -0.69,0.85 a 4.1,4.1 0 0 1 -1.32,1 4,4 0 0 1 -2,0.51 3.71,3.71 0 0 1 -2.74,-1.09 3.84,3.84 0 0 1 2.74,-6.57 z"
         id="path32"
         inkscape:connector-curvature="0" />
      <path
         d="m 358.58,96.32 a 7.1,7.1 0 0 0 -8.71,-1.63 8.23,8.23 0 0 0 -2,1.32 v 0 -10.16 h -7.55 v 28.78 h 7.55 v -10.19 a 3.75,3.75 0 0 1 0.81,-2.53 2.56,2.56 0 0 1 2,-0.89 2.2,2.2 0 0 1 1.73,0.74 3,3 0 0 1 0.69,2.1 v 10.77 h 7.55 v -12 a 9.33,9.33 0 0 0 -2.07,-6.31 z"
         id="path34"
         inkscape:connector-curvature="0" />
    </g>
  </g>
</svg>
