<?xml version="1.0" encoding="UTF-8" standalone="no"?>
<!-- Generator: Adobe Illustrator 19.0.0, SVG Export Plug-In . SVG Version: 6.00 Build 0)  -->

<svg
   xmlns:dc="http://purl.org/dc/elements/1.1/"
   xmlns:cc="http://creativecommons.org/ns#"
   xmlns:rdf="http://www.w3.org/1999/02/22-rdf-syntax-ns#"
   xmlns:svg="http://www.w3.org/2000/svg"
   xmlns="http://www.w3.org/2000/svg"
   xmlns:sodipodi="http://sodipodi.sourceforge.net/DTD/sodipodi-0.dtd"
   xmlns:inkscape="http://www.inkscape.org/namespaces/inkscape"
   version="1.1"
   id="Слой_1"
   x="0px"
   y="0px"
   viewBox="0 0 354.50001 279.6"
   xml:space="preserve"
   inkscape:version="0.91 r13725"
   sodipodi:docname="oft-logo-vertical.svg"
   width="354.5"
   height="279.60001"><metadata
     id="metadata61"><rdf:RDF><cc:Work
         rdf:about=""><dc:format>image/svg+xml</dc:format><dc:type
           rdf:resource="http://purl.org/dc/dcmitype/StillImage" /><dc:title></dc:title></cc:Work></rdf:RDF></metadata><defs
     id="defs59" /><sodipodi:namedview
     pagecolor="#ffffff"
     bordercolor="#666666"
     borderopacity="1"
     objecttolerance="10"
     gridtolerance="10"
     guidetolerance="10"
     inkscape:pageopacity="0"
     inkscape:pageshadow="2"
     inkscape:window-width="948"
     inkscape:window-height="480"
     id="namedview57"
     showgrid="false"
     fit-margin-top="0"
     fit-margin-left="0"
     fit-margin-right="0"
     fit-margin-bottom="0"
     inkscape:zoom="0.28031832"
     inkscape:cx="177.34999"
     inkscape:cy="141.04999"
     inkscape:window-x="0"
     inkscape:window-y="0"
     inkscape:window-maximized="0"
     inkscape:current-layer="Слой_1" /><style
     type="text/css"
     id="style3">
	.st0{fill:#F28E3B;}
	.st1{fill:#90C253;}
	.st2{fill:#79C7E5;}
</style><g
     id="g5"
     transform="translate(-120.3,-282.4)"><g
       id="g7"><g
         id="g9"><path
           class="st0"
           d="m 263.5,344.5 -20,-5.4 -14.6,14.6 5.3,20 20,5.4 14.6,-14.6 -5.3,-20 z m -12.9,21 -6.4,-1.7 -1.7,-6.4 4.7,-4.7 6.4,1.7 1.7,6.4 -4.7,4.7 z"
           id="path11"
           inkscape:connector-curvature="0"
           style="fill:#f28e3b" /><path
           class="st0"
           d="m 285.9,322.1 -50.7,-13.6 -37.1,37.1 13.6,50.6 50.6,13.6 37.1,-37.1 -13.5,-50.6 z m -27.1,74.4 -37.3,-10 -10,-37.4 27.3,-27.3 37.3,10 10,37.3 -27.3,27.4 z"
           id="path13"
           inkscape:connector-curvature="0"
           style="fill:#f28e3b" /></g><g
         id="g15"><path
           class="st1"
           d="m 334.7,415.7 -20,-5.4 -14.6,14.7 5.3,20 20,5.4 14.6,-14.6 -5.3,-20.1 z m -12.9,21 -6.4,-1.7 -1.7,-6.4 4.7,-4.7 6.4,1.7 1.7,6.4 -4.7,4.7 z"
           id="path17"
           inkscape:connector-curvature="0"
           style="fill:#90c253" /><path
           class="st1"
           d="m 357.2,393.3 -50.7,-13.6 -37.1,37.1 13.6,50.6 50.6,13.6 37.1,-37.1 -13.5,-50.6 z m -27.1,74.4 -37.3,-10 -10,-37.4 27.3,-27.3 37.3,10 10,37.3 -27.3,27.4 z"
           id="path19"
           inkscape:connector-curvature="0"
           style="fill:#90c253" /></g><g
         id="g21"><path
           class="st2"
           d="m 360.8,318.4 -20,-5.4 -14.6,14.6 5.3,20 20,5.4 14.6,-14.6 -5.3,-20 z m -12.9,21 -6.4,-1.7 -1.7,-6.4 4.7,-4.7 6.4,1.7 1.7,6.4 -4.7,4.7 z"
           id="path23"
           inkscape:connector-curvature="0"
           style="fill:#79c7e5" /><path
           class="st2"
           d="m 383.3,296 -50.7,-13.6 -37.1,37.1 13.6,50.6 50.6,13.6 37.1,-37.1 -13.5,-50.6 z m -27.1,74.4 -37.3,-10 -10,-37.4 27.3,-27.3 37.3,10 10,37.3 -27.3,27.4 z"
           id="path25"
           inkscape:connector-curvature="0"
           style="fill:#79c7e5" /></g></g><g
       id="g27"><path
         class="st2"
         d="m 128.7,551.3 c -5.4,0 -8.4,-3 -8.4,-8.4 l 0,-23.5 c 0,-5.4 3,-8.4 8.4,-8.4 l 10.3,0 c 5.4,0 8.4,3 8.4,8.4 l 0,23.6 c 0,5.4 -3,8.4 -8.4,8.4 l -10.3,0 z m -2.8,-8.2 c 0,2.2 1.1,3.4 3.2,3.4 l 9.4,0 c 2.2,0 3.3,-1.1 3.3,-3.2 l 0,-24 c 0,-2.1 -1.1,-3.2 -3.3,-3.2 l -9.4,0 c -2.1,0 -3.2,1.1 -3.2,3.2 l 0,23.8 z"
         id="path29"
         inkscape:connector-curvature="0"
         style="fill:#79c7e5" /><path
         class="st2"
         d="m 160.4,548.6 0,13.4 -5.4,0 0,-39.6 4.9,0 0.3,2.8 2.6,-1.8 c 1.2,-0.9 2.6,-1.3 4.2,-1.3 l 4,0 c 4.6,0 7.1,2.6 7.1,7.1 l 0,14.9 c 0,4.6 -2.5,7.1 -7.1,7.1 l -4,0 c -1.4,0 -2.9,-0.4 -4.2,-1.3 l -2.4,-1.3 z m 9.5,-1.9 c 1.9,0 2.9,-1 2.9,-2.9 l 0,-14.1 c 0,-1.9 -1,-2.9 -2.9,-2.9 l -3,0 c -1,0 -2,0.3 -3,0.9 l -3.6,2.3 0,13.3 3.6,2.3 c 1,0.6 1.9,0.9 3,0.9 l 3,0 z"
         id="path31"
         inkscape:connector-curvature="0"
         style="fill:#79c7e5" /><path
         class="st2"
         d="m 207.1,543.6 c 0,5.1 -2.8,7.8 -7.9,7.8 l -6.6,0 c -5.2,0 -7.9,-2.7 -7.9,-8 l 0,-13.2 c 0,-5.3 2.7,-8 7.9,-8 l 6.6,0 c 5.1,0 7.9,2.7 7.9,8 l 0,8.1 -17.1,0 0,5.8 c 0,2 1,3 3,3 l 5.9,0 c 2,0 3,-1 3,-3 l 0,-1.9 5.3,0 0,1.4 z m -17.2,-9.7 11.9,0 0,-4.5 c 0,-2 -1,-3 -3,-3 l -6,0 c -2,0 -3,1 -3,3 l 0,4.5 z"
         id="path33"
         inkscape:connector-curvature="0"
         style="fill:#79c7e5" /><path
         class="st2"
         d="m 225.7,526.9 c -1,0 -2,0.3 -3,0.9 l -3.6,2.4 0,21 -5.4,0 0,-28.7 4.9,0 0.2,2.8 2.7,-1.8 c 1.4,-0.9 2.8,-1.3 4.2,-1.3 l 4,0 c 4.6,0 7.1,2.5 7.1,7.1 l 0,21.8 -5.4,0 0,-21.4 c 0,-1.9 -0.9,-2.9 -2.8,-2.9 l -2.9,0 z"
         id="path35"
         inkscape:connector-curvature="0"
         style="fill:#79c7e5" /><path
         class="st2"
         d="m 268.6,534.4 -18,0 0,16.7 -5.6,0 0,-39.8 25.1,0 0,4.9 -19.4,0 0,13.4 18,0 0,4.8 z"
         id="path37"
         inkscape:connector-curvature="0"
         style="fill:#79c7e5" /><path
         class="st2"
         d="m 275.3,517.7 0,-6.4 5.6,0 0,6.4 -5.6,0 z m 0.1,33.4 0,-28.7 5.4,0 0,28.7 -5.4,0 z"
         id="path39"
         inkscape:connector-curvature="0"
         style="fill:#79c7e5" /><path
         class="st2"
         d="m 300.1,526.9 c -1,0 -2,0.3 -3,0.9 l -3.6,2.4 0,21 -5.4,0 0,-28.7 4.9,0 0.2,2.8 2.7,-1.8 c 1.4,-0.9 2.8,-1.3 4.2,-1.3 l 4,0 c 4.6,0 7.1,2.5 7.1,7.1 l 0,21.8 -5.2,0 0,-21.4 c 0,-1.9 -0.9,-2.9 -2.8,-2.9 l -3.1,0 z"
         id="path41"
         inkscape:connector-curvature="0"
         style="fill:#79c7e5" /><path
         class="st2"
         d="m 338.3,516.2 -10.3,0 0,34.9 -5.7,0 0,-34.9 -10.3,0 0,-4.9 26.4,0 0,4.9 z"
         id="path43"
         inkscape:connector-curvature="0"
         style="fill:#79c7e5" /><path
         class="st2"
         d="m 361.2,543.6 c 0,5.1 -2.8,7.8 -7.9,7.8 l -6.6,0 c -5.2,0 -7.9,-2.7 -7.9,-8 l 0,-13.2 c 0,-5.3 2.7,-8 7.9,-8 l 6.6,0 c 5.1,0 7.9,2.7 7.9,8 l 0,8.1 -17.1,0 0,5.8 c 0,2 1,3 3,3 l 5.9,0 c 2,0 3,-1 3,-3 l 0,-1.9 5.3,0 0,1.4 z m -17.1,-9.7 11.9,0 0,-4.5 c 0,-2 -1,-3 -3,-3 l -6,0 c -2,0 -3,1 -3,3 l 0,4.5 z"
         id="path45"
         inkscape:connector-curvature="0"
         style="fill:#79c7e5" /><path
         class="st2"
         d="m 375.3,551.3 c -5.2,0 -7.9,-2.7 -7.9,-8 l 0,-13.2 c 0,-5.3 2.7,-8 7.9,-8 l 6.5,0 c 5,0 7.8,2.7 7.8,8 l 0,1.9 -5.3,0 0,-2.2 c 0,-2 -1,-3 -3,-3 l -5.7,0 c -2,0 -3,1 -3,3 l 0,13.9 c 0,2 1,3 3,3 l 5.7,0 c 2,0 3,-1 3,-3 l 0,-2.9 5.3,0 0,2.5 c 0,5.3 -2.8,8 -7.8,8 l -6.5,0 z"
         id="path47"
         inkscape:connector-curvature="0"
         style="fill:#79c7e5" /><path
         class="st2"
         d="m 401.3,530.1 0,21 -5.4,0 0,-39.8 5.4,0 0,13.7 2.4,-1.5 c 1.4,-0.9 2.8,-1.3 4.2,-1.3 l 4,0 c 4.6,0 7.1,2.5 7.1,7.1 l 0,21.8 -5.4,0 0,-21.4 c 0,-1.9 -0.9,-2.9 -2.8,-2.9 l -3,0 c -1,0 -2,0.3 -3,0.9 l -3.5,2.4 z"
         id="path49"
         inkscape:connector-curvature="0"
         style="fill:#79c7e5" /><path
         class="st2"
         d="m 426.2,551.1 0,-6.9 5.8,0 0,6.9 -5.8,0 z"
         id="path51"
         inkscape:connector-curvature="0"
         style="fill:#79c7e5" /><path
         class="st2"
         d="m 439.2,517.7 0,-6.4 5.6,0 0,6.4 -5.6,0 z m 0.2,33.4 0,-28.7 5.4,0 0,28.7 -5.4,0 z"
         id="path53"
         inkscape:connector-curvature="0"
         style="fill:#79c7e5" /><path
         class="st2"
         d="m 459.6,551.3 c -5.2,0 -7.9,-2.7 -7.9,-8 l 0,-13.2 c 0,-5.3 2.7,-8 7.9,-8 l 7.3,0 c 5.1,0 7.9,2.7 7.9,8 l 0,13.2 c 0,5.3 -2.9,8 -7.9,8 l -7.3,0 z m 6.8,-4.5 c 1.9,0 3,-1.1 3,-3 l 0,-14.1 c 0,-2 -1,-3 -3,-3 l -6.4,0 c -2,0 -3,1 -3,3 l 0,14.1 c 0,2 1,3 3,3 l 6.4,0 z"
         id="path55"
         inkscape:connector-curvature="0"
         style="fill:#79c7e5" /></g></g></svg>