<?xml version="1.0" encoding="utf-8"?>
<!-- Generator: Adobe Illustrator 19.0.0, SVG Export Plug-In . SVG Version: 6.00 Build 0)  -->
<svg version="1.1" id="Слой_1" xmlns="http://www.w3.org/2000/svg" xmlns:xlink="http://www.w3.org/1999/xlink" x="0px" y="0px"
	 viewBox="0 0 198.7 198.6" style="enable-background:new 0 0 198.7 198.6;" xml:space="preserve">
<style type="text/css">
	.st0{fill:#F28E3B;}
	.st1{fill:#90C253;}
	.st2{fill:#79C7E5;}
</style>
<g>
	<g>
		<path class="st0" d="M65.3,62.1l-20-5.4L30.7,71.4l5.3,20l20,5.4l14.6-14.6L65.3,62.1z M52.4,83.1L46,81.4L44.3,75l4.7-4.7
			l6.4,1.7l1.7,6.4L52.4,83.1z"/>
		<path class="st0" d="M87.7,39.7L37.1,26.1L0,63.2l13.6,50.6l50.6,13.6l37.1-37.1L87.7,39.7z M60.7,114.1l-37.3-10l-10-37.4
			l27.3-27.3l37.3,10l10,37.3L60.7,114.1z"/>
	</g>
	<g>
		<path class="st1" d="M136.5,133.3l-20-5.4l-14.6,14.6l5.3,20l20,5.4l14.6-14.6L136.5,133.3z M123.6,154.3l-6.4-1.7l-1.7-6.4
			l4.7-4.7l6.4,1.7l1.7,6.4L123.6,154.3z"/>
		<path class="st1" d="M159,110.9l-50.7-13.6l-37.1,37.1L84.8,185l50.6,13.6l37.1-37.1L159,110.9z M131.9,185.3l-37.3-10l-10-37.4
			l27.3-27.3l37.3,10l10,37.3L131.9,185.3z"/>
	</g>
	<g>
		<path class="st2" d="M162.6,36l-20-5.4L128,45.3l5.3,20l20,5.4L168,56L162.6,36z M149.7,57l-6.4-1.7l-1.7-6.4l4.7-4.7l6.4,1.7
			l1.7,6.4L149.7,57z"/>
		<path class="st2" d="M185.1,13.6L134.4,0L97.4,37.1l13.6,50.6l50.6,13.6l37.1-37.1L185.1,13.6z M158,88l-37.3-10l-10-37.4
			L138,13.3l37.3,10l10,37.3L158,88z"/>
	</g>
</g>
</svg>
